# xmcd CD database file
#
# Track frame offsets:
#	150
#	19551
#	35900
#	48500
#	62825
#	81521
#	108971
#	124749
#	140493
#	153243
#	166893
#	181113
#	206178
#	223958
#	241808
#
# Disc length: 3578 seconds
#
# Revision: 4
# Processed by: cddbd v1.5.2PL0 Copyright (c) Steve Scherf et al.
# Submitted via: CDex 1.51
#
DISCID=d60df80f
DTITLE=Mall Security - Simple Circuits
DYEAR=2009
DGENRE=New Age
TTITLE0=Social Security
TTITLE1=Roll North
TTITLE2=Motum
TTITLE3=Southside Walking
TTITLE4=Durbin Acid
TTITLE5=Li
TTITLE6=Onin
TTITLE7=Repitive
TTITLE8=Yes Kitten, It's A Struggle
TTITLE9=Noodles
TTITLE10=MS408
TTITLE11=Journzig
TTITLE12=Yes Kitten, It's A Struggle [Catnap Dub by Dorosoto]
TTITLE13=The Right Time [D.D. Newmole Remix]
TTITLE14=Social Security [Mint's 44 Remix]
EXTD=YEAR: 2009
EXTT0=
EXTT1=
EXTT2=
EXTT3=
EXTT4=
EXTT5=
EXTT6=
EXTT7=
EXTT8=
EXTT9=
EXTT10=
EXTT11=
EXTT12=
EXTT13=
EXTT14=
PLAYORDER=
